<svg width="1200" height="191" viewBox="0 0 1200 191" fill="none" xmlns="http://www.w3.org/2000/svg">
    <path
        d="M1124.07 188.969C1081.56 188.969 1049.78 158.071 1049.78 117.341C1049.78 76.6117 1081.56 45.7134 1123.84 45.7134C1166.11 45.7134 1197.89 76.2996 1197.89 118.2C1197.89 160.1 1197.65 126.548 1196.79 129.982H1091.82C1096.12 145.587 1108.8 155.496 1125.17 155.496C1141.53 155.496 1148.02 150.112 1153.74 142.622H1195.77C1185.52 170.243 1158.12 189.047 1124.15 189.047L1124.07 188.969ZM1123.76 79.1865C1108.1 79.1865 1096.28 88.8618 1091.97 103.843H1155.77C1151.7 88.7835 1139.33 79.1865 1123.76 79.1865Z"
        fill="#0D1725" />
    <path
        d="M971.966 188.969C929.461 188.969 897.678 158.071 897.678 117.341C897.678 76.6117 929.461 45.7134 971.732 45.7134C1014.01 45.7134 1045.79 76.2996 1045.79 118.2C1045.79 160.1 1045.55 126.548 1044.69 129.982H939.714C944.02 145.587 956.701 155.496 973.063 155.496C989.422 155.496 995.92 150.112 1001.63 142.622H1043.67C1033.42 170.243 1006.02 189.047 972.046 189.047L971.966 188.969ZM971.655 79.1865C955.999 79.1865 944.177 88.8618 939.871 103.843H1003.67C999.6 88.7835 987.23 79.1865 971.655 79.1865Z"
        fill="#0D1725" />
    <path
        d="M746.582 185.792V0.63623H785.881V62.5889C796.371 51.8215 810.615 45.6574 827.368 45.6574C865.335 45.6574 893.592 76.5558 893.592 117.285C893.592 158.015 865.335 188.913 827.368 188.913C789.401 188.913 796.448 182.749 785.881 171.982V185.636H746.582V185.792ZM819.542 151.149C838.955 151.149 853.199 136.636 853.199 117.363C853.199 98.0911 838.955 83.5781 819.542 83.5781C800.125 83.5781 785.881 98.0911 785.881 117.363C785.881 136.636 800.125 151.149 819.542 151.149Z"
        fill="#0D1725" />
    <path
        d="M510.314 185.77V48.9125H549.613V61.7866C559.865 51.0191 573.018 45.7134 588.674 45.7134C604.33 45.7134 622.884 54.062 631.178 67.9506C642.217 53.438 657.796 45.7134 677.521 45.7134C707.424 45.7134 727.309 65.844 727.309 96.4302V136.926C727.309 143.87 731.378 147.928 738.344 147.928H746.488V185.77H741.008H729.969C702.258 185.77 687.933 172.038 687.933 145.509V108.212C687.933 93.4653 678.541 83.5561 664.213 83.5561C649.889 83.5561 638.382 93.7774 638.382 108.759V185.77H599.083V108.212C599.083 93.4653 589.691 83.5561 575.367 83.5561C561.039 83.5561 549.532 93.7774 549.532 108.759V185.77H510.237H510.314Z"
        fill="#0D1725" />
    <path
        d="M429.866 188.969C387.596 188.969 355.812 158.071 355.812 117.341C355.812 76.6117 387.596 45.7134 429.866 45.7134C472.14 45.7134 503.92 76.6117 503.92 117.341C503.92 158.071 472.14 188.969 429.866 188.969ZM429.866 151.127C449.28 151.127 463.527 136.614 463.527 117.341C463.527 98.0687 449.28 83.5561 429.866 83.5561C410.453 83.5561 396.206 98.0687 396.206 117.341C396.206 136.614 410.453 151.127 429.866 151.127Z"
        fill="#0D1725" />
    <path
        d="M221.354 185.792V0.63623H263.077V79.5207L326.328 0.63623H377.209L306.366 87.3233L379.558 185.792H327.58L279.125 118.69L262.999 136.636V185.714H221.275L221.354 185.792Z"
        fill="#0D1725" />
    <path
        d="M32.4864 125.02C50.428 125.02 64.9728 110.523 64.9728 92.6393C64.9728 74.7559 50.428 60.2583 32.4864 60.2583C14.5447 60.2583 0 74.7559 0 92.6393C0 110.523 14.5447 125.02 32.4864 125.02Z"
        fill="#CF00FF" />
    <path
        d="M73.8174 62.3828V122.463C104.425 122.463 132.449 111.228 153.898 92.5792C132.449 73.7746 104.425 62.3828 73.8174 62.3828Z"
        fill="#7300BE" />
    <path
        d="M196.178 0.63623H135.902C135.902 34.7337 108.113 62.433 73.9043 62.433C104.512 62.433 132.536 73.8248 153.985 92.629C179.818 70.2355 196.178 37.3085 196.178 0.63623Z"
        fill="#CF00FF" />
    <path
        d="M153.985 92.6543C132.536 111.225 104.512 122.538 73.9043 122.538C108.113 122.538 135.902 150.94 135.902 185.818H196.178C196.178 148.677 179.818 115.282 153.985 92.6543Z"
        fill="#7E00E2" />
</svg>